<?xml version="1.0" encoding="UTF-8" standalone="no"?><!DOCTYPE svg PUBLIC "-//W3C//DTD SVG 1.1//EN" "http://www.w3.org/Graphics/SVG/1.1/DTD/svg11.dtd"><svg width="60px" height="60px" version="1.1" xmlns="http://www.w3.org/2000/svg" xmlns:xlink="http://www.w3.org/1999/xlink" xml:space="preserve" xmlns:serif="http://www.serif.com/" style="fill-rule:evenodd;clip-rule:evenodd;stroke-linejoin:round;stroke-miterlimit:2;"><g transform="matrix(1,0,0,1,-118.110236,0)"><g id="CODAE" transform="matrix(1,0,0,1,118.110236,0)"><rect x="0" y="0" width="59.055" height="59.055" style="fill:none;"/><clipPath id="_clip1"><rect x="0" y="0" width="59.055" height="59.055"/></clipPath><g clip-path="url(#_clip1)"><g transform="matrix(0.500018,0,0,0.8168,-147.644316,-865.158272)"><path d="M413.384,1118.491L413.384,1130.059C413.384,1130.857 412.326,1131.505 411.022,1131.505L356.693,1131.505C355.39,1131.505 354.331,1130.857 354.331,1130.059L354.331,1118.491C354.331,1117.693 355.39,1117.045 356.693,1117.045L411.022,1117.045C412.326,1117.045 413.384,1117.693 413.384,1118.491Z" style="fill:url(#_Linear2);"/></g><g transform="matrix(0.500018,0,0,0.8168,-147.644316,-912.402367)"><path d="M413.384,1118.491L413.384,1130.059C413.384,1130.857 412.326,1131.505 411.022,1131.505L356.693,1131.505C355.39,1131.505 354.331,1130.857 354.331,1130.059L354.331,1118.491C354.331,1117.693 355.39,1117.045 356.693,1117.045L411.022,1117.045C412.326,1117.045 413.384,1117.693 413.384,1118.491Z" style="fill:url(#_Linear3);"/></g><g transform="matrix(0.200007,0,0,4.083999,-47.246703,-4562.011835)"><path d="M413.384,1118.491L413.384,1130.059C413.384,1130.857 400.154,1131.505 383.858,1131.505C367.562,1131.505 354.331,1130.857 354.331,1130.059L354.331,1118.491C354.331,1117.693 367.562,1117.045 383.858,1117.045C400.154,1117.045 413.384,1117.693 413.384,1118.491Z" style="fill:url(#_Linear4);"/></g><g transform="matrix(0.597738,-0.052295,0.071189,0.813692,-274.037836,-864.954578)"><path d="M413.384,1118.491L413.384,1130.059C413.384,1130.857 412.502,1131.505 411.416,1131.505L356.3,1131.505C355.213,1131.505 354.331,1130.857 354.331,1130.059L354.331,1118.491C354.331,1117.693 355.213,1117.045 356.3,1117.045L411.416,1117.045C412.502,1117.045 413.384,1117.693 413.384,1118.491Z" style="fill:url(#_Linear5);"/></g><g transform="matrix(1,0,0,1,-1417.322835,-1062.992126)"><path d="M1428.51,1118.783C1427.053,1121.698 1423.503,1122.881 1420.587,1121.424C1417.672,1119.966 1416.489,1116.416 1417.946,1113.501L1441.568,1066.257C1443.026,1063.341 1446.576,1062.158 1449.491,1063.616C1452.407,1065.073 1453.59,1068.623 1452.132,1071.539L1428.51,1118.783Z" style="fill:rgb(204,204,204);"/></g><g transform="matrix(2.055376,0,0,2.055376,-2855.767941,-2246.165821)"><circle cx="1392.287" cy="1118.683" r="1.437" style="fill:rgb(178,178,178);"/></g><g transform="matrix(2.055376,0,0,2.055376,-2832.145894,-2293.409916)"><circle cx="1392.287" cy="1118.683" r="1.437" style="fill:rgb(178,178,178);"/></g><g transform="matrix(2.055376,0,0,2.055376,-2832.145894,-2246.165821)"><circle cx="1392.287" cy="1118.683" r="1.437" style="fill:rgb(178,178,178);"/></g></g></g></g><defs><linearGradient id="_Linear2" x1="0" y1="0" x2="1" y2="0" gradientUnits="userSpaceOnUse" gradientTransform="matrix(91.682112,-0,0,56.122752,321.702173,1097.311769)"><stop offset="0" style="stop-color:rgb(116,54,70);stop-opacity:1"/><stop offset="1" style="stop-color:rgb(168,56,77);stop-opacity:1"/></linearGradient><linearGradient id="_Linear3" x1="0" y1="0" x2="1" y2="0" gradientUnits="userSpaceOnUse" gradientTransform="matrix(91.682112,-0,0,56.122752,321.702173,1155.152248)"><stop offset="0" style="stop-color:rgb(116,54,70);stop-opacity:1"/><stop offset="1" style="stop-color:rgb(168,56,77);stop-opacity:1"/></linearGradient><linearGradient id="_Linear4" x1="0" y1="0" x2="1" y2="0" gradientUnits="userSpaceOnUse" gradientTransform="matrix(0,14.46012,-295.265174,0,317.413607,1117.045209)"><stop offset="0" style="stop-color:rgb(178,178,178);stop-opacity:1"/><stop offset="1" style="stop-color:rgb(204,204,204);stop-opacity:1"/></linearGradient><linearGradient id="_Linear5" x1="0" y1="0" x2="1" y2="0" gradientUnits="userSpaceOnUse" gradientTransform="matrix(76.111028,4.891593,-6.658617,55.909188,346.75219,1123.538464)"><stop offset="0" style="stop-color:rgb(116,54,70);stop-opacity:1"/><stop offset="1" style="stop-color:rgb(168,56,77);stop-opacity:1"/></linearGradient></defs></svg>