<?xml version="1.0" encoding="UTF-8" standalone="no"?><!DOCTYPE svg PUBLIC "-//W3C//DTD SVG 1.1//EN" "http://www.w3.org/Graphics/SVG/1.1/DTD/svg11.dtd"><svg width="119px" height="119px" version="1.1" xmlns="http://www.w3.org/2000/svg" xmlns:xlink="http://www.w3.org/1999/xlink" xml:space="preserve" xmlns:serif="http://www.serif.com/" style="fill-rule:evenodd;clip-rule:evenodd;stroke-linecap:round;stroke-linejoin:round;stroke-miterlimit:1.5;"><g transform="matrix(1,0,0,1,-1143.831277,-1043.056329)"><g id="Tavola-da-disegno2" serif:id="Tavola da disegno2" transform="matrix(0.166666,0,0,0.166805,990.998871,1043.056329)"><rect x="916.996" y="0" width="708.663" height="708.075" style="fill:none;"/><clipPath id="_clip1"><rect x="916.996" y="0" width="708.663" height="708.075"/></clipPath><g clip-path="url(#_clip1)"><g transform="matrix(25.000038,0,0,24.979313,-854.651165,-1416.15)"><g transform="matrix(0.24,0,0,0.392064,0,-358.583057)"><rect x="354.331" y="1117.045" width="59.053" height="14.46" style="fill:url(#_Linear2);"/></g><g transform="matrix(0.240008,0,0,0.392064,-0.0035,-381.260223)"><rect x="354.331" y="1117.045" width="59.053" height="14.46" style="fill:url(#_Linear3);"/></g><g transform="matrix(0.24,0,0,0.216,-0,-159.365352)"><path d="M354.329,1118.38L354.329,1013.395" style="fill:none;stroke:rgb(168,137,77);stroke-width:15.52px;"/></g><g transform="matrix(0.24,0,0,0.24,0,-186.521909)"><path d="M333.514,1066.838L399.44,1060.834L401.573,1084.261L321.702,1090.46L333.514,1066.838Z" style="fill:url(#_Linear4);"/></g><g transform="matrix(0.24,0,0,0.24,-0,-186.521909)"><path d="M354.329,1025.206L307.085,1119.692" style="fill:none;stroke:rgb(180,152,91);stroke-width:14.76px;"/></g><g><g transform="matrix(0.366515,0,0,0.366515,-28.461265,-326.542566)"><circle cx="278.738" cy="1115.226" r="7.734" style="fill:rgb(168,137,77);"/></g><g transform="matrix(0.366515,0,0,0.366515,-17.122682,-326.542066)"><circle cx="278.738" cy="1115.226" r="7.734" style="fill:rgb(180,152,91);"/></g><g transform="matrix(0.366515,0,0,0.366515,-17.122682,-349.219232)"><circle cx="278.738" cy="1115.226" r="7.734" style="fill:rgb(168,137,77);"/></g></g></g></g></g></g><defs><linearGradient id="_Linear2" x1="0" y1="0" x2="1" y2="0" gradientUnits="userSpaceOnUse" gradientTransform="matrix(91.682112,0,0,56.122752,321.702173,1099.454119)"><stop offset="0" style="stop-color:rgb(107,38,36);stop-opacity:1"/><stop offset="1" style="stop-color:rgb(169,63,57);stop-opacity:1"/></linearGradient><linearGradient id="_Linear3" x1="0" y1="0" x2="1" y2="0" gradientUnits="userSpaceOnUse" gradientTransform="matrix(91.678878,0,0,56.122752,321.705407,1157.294597)"><stop offset="0" style="stop-color:rgb(107,38,36);stop-opacity:1"/><stop offset="1" style="stop-color:rgb(169,63,57);stop-opacity:1"/></linearGradient><linearGradient id="_Linear4" x1="0" y1="0" x2="1" y2="0" gradientUnits="userSpaceOnUse" gradientTransform="matrix(91.682112,0,0,91.682112,321.702173,1079.146481)"><stop offset="0" style="stop-color:rgb(107,38,36);stop-opacity:1"/><stop offset="1" style="stop-color:rgb(169,63,57);stop-opacity:1"/></linearGradient></defs></svg>