<?xml version="1.0" encoding="UTF-8" standalone="no"?>
<!DOCTYPE svg PUBLIC "-//W3C//DTD SVG 1.1//EN" "http://www.w3.org/Graphics/SVG/1.1/DTD/svg11.dtd">
<svg width="100%" height="100%" viewBox="0 0 60 60" version="1.1" xmlns="http://www.w3.org/2000/svg" xmlns:xlink="http://www.w3.org/1999/xlink" xml:space="preserve" xmlns:serif="http://www.serif.com/" style="fill-rule:evenodd;clip-rule:evenodd;stroke-linecap:round;stroke-linejoin:round;stroke-miterlimit:1.5;">
    <g transform="matrix(1,0,0,1,-236.220472,0)">
        <g id="SISMA" transform="matrix(1,0,0,1,236.220472,0)">
            <rect x="0" y="0" width="59.055" height="59.055" style="fill:none;"/>
            <clipPath id="_clip1">
                <rect x="0" y="0" width="59.055" height="59.055"/>
            </clipPath>
            <g clip-path="url(#_clip1)">
                <g transform="matrix(1,0,0,1,-236.220472,0)">
                    <path d="M242.126,29.528L257.48,44.291L265.748,5.906L275.197,44.291L289.37,29.528" style="fill:none;stroke:rgb(99,135,80);stroke-width:11.81px;"/>
                </g>
                <g transform="matrix(1,0,0,1,-236.220472,0)">
                    <path d="M242.126,29.528L289.37,29.528" style="fill:none;stroke:rgb(204,204,204);stroke-width:11.81px;"/>
                </g>
                <g transform="matrix(1,0,0,1,-236.220472,0)">
                    <path d="M242.126,29.528L257.48,44.291" style="fill:none;stroke:rgb(110,164,101);stroke-width:11.81px;"/>
                </g>
                <g transform="matrix(1,0,0,1,-236.220472,0)">
                    <path d="M265.748,5.906L275.197,44.291" style="fill:none;stroke:rgb(110,164,101);stroke-width:11.81px;"/>
                </g>
                <g transform="matrix(2.055376,0,0,2.055376,-2808.523847,-2269.787869)">
                    <circle cx="1392.287" cy="1118.683" r="1.437" style="fill:rgb(178,178,178);"/>
                </g>
                <g transform="matrix(2.055376,0,0,2.055376,-2855.767941,-2269.787869)">
                    <circle cx="1392.287" cy="1118.683" r="1.437" style="fill:rgb(99,135,80);"/>
                </g>
            </g>
        </g>
    </g>
</svg>
