<?xml version="1.0" encoding="UTF-8" standalone="no"?><!DOCTYPE svg PUBLIC "-//W3C//DTD SVG 1.1//EN" "http://www.w3.org/Graphics/SVG/1.1/DTD/svg11.dtd"><svg width="60px" height="60px" version="1.1" xmlns="http://www.w3.org/2000/svg" xmlns:xlink="http://www.w3.org/1999/xlink" xml:space="preserve" xmlns:serif="http://www.serif.com/" style="fill-rule:evenodd;clip-rule:evenodd;stroke-linejoin:round;stroke-miterlimit:2;"><g transform="matrix(1,0,0,1,-1384.596394,-1072.424357)"><g id="Tavola-da-disegno3" serif:id="Tavola da disegno3" transform="matrix(0.083783,0,0,0.083853,1307.767331,1072.424357)"><rect x="916.996" y="0" width="708.663" height="708.075" style="fill:none;"/><clipPath id="_clip1"><rect x="916.996" y="0" width="708.663" height="708.075"/></clipPath><g clip-path="url(#_clip1)"><g transform="matrix(26.290324,0,0,26.268528,-964.365158,-1506.046273)"><g><g transform="matrix(0.229162,0,0,0.374359,3.84026,-339.189644)"><rect x="354.331" y="1117.045" width="59.053" height="14.46" style="fill:url(#_Linear2);"/></g><g transform="matrix(0.22917,0,0,0.374359,3.836918,-360.842736)"><rect x="354.331" y="1117.045" width="59.053" height="14.46" style="fill:url(#_Linear3);"/></g><g transform="matrix(0.230512,0,0,0.206236,3.361792,-148.959156)"><path d="M366.071,1118.38C366.071,1125.623 360.81,1131.504 354.329,1131.504C347.849,1131.504 342.587,1125.623 342.587,1118.38L342.587,1013.395C342.587,1006.152 347.849,1000.271 354.329,1000.271C360.81,1000.271 366.071,1006.152 366.071,1013.395L366.071,1118.38Z" style="fill:rgb(180,152,91);"/></g><g transform="matrix(0.229162,0,0,0.229162,3.84026,-174.898572)"><path d="M333.514,1066.838L399.44,1060.834L401.573,1084.261L321.702,1090.46L333.514,1066.838Z" style="fill:url(#_Linear4);"/></g><g transform="matrix(0.23024,0.000544,0.000544,0.229424,2.899822,-175.359992)"><path d="M343.827,1019.955C346.742,1014.124 353.815,1011.743 359.612,1014.642C365.408,1017.54 367.747,1024.627 364.831,1030.457L317.587,1124.943C314.672,1130.774 307.599,1133.155 301.803,1130.257C296.006,1127.359 293.667,1120.272 296.583,1114.441L343.827,1019.955Z" style="fill:rgb(180,152,91);"/></g></g></g></g></g></g><defs><linearGradient id="_Linear2" x1="0" y1="0" x2="1" y2="0" gradientUnits="userSpaceOnUse" gradientTransform="matrix(91.682112,0,0,56.122752,321.702173,1097.311769)"><stop offset="0" style="stop-color:rgb(107,38,36);stop-opacity:1"/><stop offset="1" style="stop-color:rgb(169,63,57);stop-opacity:1"/></linearGradient><linearGradient id="_Linear3" x1="0" y1="0" x2="1" y2="0" gradientUnits="userSpaceOnUse" gradientTransform="matrix(91.678878,0,0,56.122752,321.705407,1155.152248)"><stop offset="0" style="stop-color:rgb(107,38,36);stop-opacity:1"/><stop offset="1" style="stop-color:rgb(169,63,57);stop-opacity:1"/></linearGradient><linearGradient id="_Linear4" x1="0" y1="0" x2="1" y2="0" gradientUnits="userSpaceOnUse" gradientTransform="matrix(91.682112,0,0,91.682112,321.702173,1075.64674)"><stop offset="0" style="stop-color:rgb(107,38,36);stop-opacity:1"/><stop offset="1" style="stop-color:rgb(169,63,57);stop-opacity:1"/></linearGradient></defs></svg>